<svg xmlns="http://www.w3.org/2000/svg"><symbol id="instagram" viewBox="0 0 256 256"><path d="M181.4 28.1a46.5 46.5 0 0 1 46.5 46.5v106.8a46.5 46.5 0 0 1-46.5 46.5H74.6a46.5 46.5 0 0 1-46.5-46.5V74.6a46.5 46.5 0 0 1 46.5-46.5h106.8m0-22.1H74.6A68.6 68.6 0 0 0 6 74.6v106.8A68.6 68.6 0 0 0 74.6 250h106.8a68.6 68.6 0 0 0 68.6-68.6V74.6A68.6 68.6 0 0 0 181.4 6z"/><path d="M128 87.9A40.1 40.1 0 1 1 87.9 128 40.2 40.2 0 0 1 128 87.9m0-22.1a62.2 62.2 0 1 0 62.2 62.2A62.3 62.3 0 0 0 128 65.8zm65 12c-8 0-15.1-7.4-14.8-15.4a15 15 0 0 1 15.2-14.3A14.7 14.7 0 0 1 207.8 63 15 15 0 0 1 193 77.8z"/></symbol><symbol id="linkedin" viewBox="0 0 256 256"><path d="M10.5 87.3h50.8v162.5H10.5z"/><circle cx="35.9" cy="36.1" r="29.9"/><path d="M250 249.8h-50.8v-92.2s1.8-29.4-26.1-30.1-29.5 30.1-29.5 30.1v92.2H92.8V87.3h50.8v19.5s15.4-23.6 45.7-23.6c39.8 0 46.6 18.9 51.4 25.7s9.3 24.5 9.3 48.7z"/></symbol></svg>