<svg xmlns="http://www.w3.org/2000/svg"><symbol id="down-arrow" viewBox="0 0 100 100"><path d="M4.7 30.1l5.4-5.4L50 64.5l39.9-39.8 5.4 5.4L50 75.3 4.7 30.1z"/></symbol><symbol id="github" viewBox="0 0 100 100"><path d="M50 5.9A45.2 45.2 0 0 0 35.7 94c2.3.4 3.1-1 3.1-2.2s0-3.9-.1-7.7c-12.5 2.8-15.2-6-15.2-6-2.1-5.2-5-6.6-5-6.6-4.1-2.8.3-2.8.3-2.8 4.5.3 6.9 4.7 6.9 4.7 4.1 6.9 10.6 4.9 13.2 3.7a9.9 9.9 0 0 1 2.8-6c-10-1.1-20.5-5-20.5-22.3a17.5 17.5 0 0 1 4.6-12.2c-.5-1.1-2-5.7.5-11.9 0 0 3.7-1.3 12.4 4.6a43.3 43.3 0 0 1 22.6 0c8.7-5.9 12.4-4.6 12.4-4.6 2.5 6.2 1 10.8.5 11.9a17.5 17.5 0 0 1 4.6 12.2c0 17.3-10.5 21.1-20.6 22.3 1.6 1.4 3.1 4.1 3.1 8.3 0 6.1-.1 11-.1 12.4s.8 2.7 3.1 2.2A45.2 45.2 0 0 0 50 5.9z"/></symbol><symbol id="instagram" viewBox="0 0 256 256"><path d="M181.4 28.1a46.5 46.5 0 0 1 46.5 46.5v106.8a46.5 46.5 0 0 1-46.5 46.5H74.6a46.5 46.5 0 0 1-46.5-46.5V74.6a46.5 46.5 0 0 1 46.5-46.5h106.8m0-22.1H74.6A68.6 68.6 0 0 0 6 74.6v106.8A68.6 68.6 0 0 0 74.6 250h106.8a68.6 68.6 0 0 0 68.6-68.6V74.6A68.6 68.6 0 0 0 181.4 6z"/><path d="M128 87.9A40.1 40.1 0 1 1 87.9 128 40.2 40.2 0 0 1 128 87.9m0-22.1a62.2 62.2 0 1 0 62.2 62.2A62.3 62.3 0 0 0 128 65.8zm65 12c-8 0-15.1-7.4-14.8-15.4a15 15 0 0 1 15.2-14.3A14.7 14.7 0 0 1 207.8 63 15 15 0 0 1 193 77.8z"/></symbol><symbol id="linkedin" viewBox="0 0 256 256"><path d="M10.5 87.3h50.8v162.5H10.5z"/><circle cx="35.9" cy="36.1" r="29.9"/><path d="M250 249.8h-50.8v-92.2s1.8-29.4-26.1-30.1-29.5 30.1-29.5 30.1v92.2H92.8V87.3h50.8v19.5s15.4-23.6 45.7-23.6c39.8 0 46.6 18.9 51.4 25.7s9.3 24.5 9.3 48.7z"/></symbol><symbol id="vimeo" viewBox="0 0 100 100"><path d="M98 27.6c-.5 9.4-7 22.2-19.6 38.5S54.3 91.6 45.2 91.6c-5.5 0-10.3-5.2-14.2-15.5s-5.1-19-7.7-28.5-6-15.5-9.2-15.5c-.8 0-3.3 1.5-7.6 4.5L2 30.8l14-12.5c6.3-5.5 11.1-8.4 14.2-8.7C37.7 8.9 42.3 14 44 25s3.2 19.1 3.9 22c2.2 9.8 4.5 14.7 7.1 14.7s5.1-3.2 9.1-9.5 6.1-11.2 6.4-14.5c.6-5.5-1.5-8.3-6.4-8.3A17 17 0 0 0 57 31C61.7 15.5 70.7 8 84 8.4c9.9.3 14.5 6.7 14 19.2z"/></symbol><symbol id="cv" viewBox="0 0 100 100"><path d="M36.4 3.3L13.9 25.8h20.4a2.1 2.1 0 0 0 2.1-2.2z"/><path d="M38.6 3.2v21.4a3.4 3.4 0 0 1-3.4 3.4H13.9v66.6a2.1 2.1 0 0 0 2.1 2.2h68a2.1 2.1 0 0 0 2.1-2.2V5.4A2.1 2.1 0 0 0 84 3.2zm-4.4 64.4a3.9 3.9 0 0 0 1.6 2.2 7.8 7.8 0 0 0 3.5.5l8-.3.2 9.1a47 47 0 0 1-11.2 1.3c-3.8 0-6.7-.5-8.8-1.6a9.6 9.6 0 0 1-4.4-5.4 34.6 34.6 0 0 1-1.4-11c0-6.8 1.1-11.4 3.2-14s6.1-3.7 12-3.7a43.8 43.8 0 0 1 8.8 1l1.8.3-.3 9.2a74.3 74.3 0 0 0-7.8-.5c-2.4 0-3.9.5-4.6 1.4s-1 2.8-1 5.6a26.4 26.4 0 0 0 .4 5.9zm39.2 12.1H55.8l-6.9-34.4h12.6l2.7 22.4h.9l2.4-22.4h12.6z"/></symbol></svg>
